PathFileType	4	(X/Y/Z)	6_coords_data.trc
DataRate	CameraRate	NumFrames	NumMarkers	Units	OrigDataRate	OrigDataStartFrame	OrigNumFrames
30.0	30.0	6	21	m	30.0	21	72
Frame#	Time	THUMB_TIP	THUMB_IP	THUMB_MCP	THUMB_CMC	INDEX_TIP	INDEX_DIP	INDEX_PIP	INDEX_MCP	MIDDLE_TIP	MIDDLE_DIP	MIDDLE_PIP	MIDDLE_MCP	RING_TIP	RING_DIP	RING_PIP	RING_MCP	PINKY_TIP	PINKY_DIP	PINKY_PIP	PINKY_MCP	WRIST
X1	Y1	Z1	X2	Y2	Z2	X3	Y3	Z3	X4	Y4	Z4	X5	Y5	Z5	X6	Y6	Z6	X7	Y7	Z7	X8	Y8	Z8	X9	Y9	Z9	X10	Y10	Z10	X11	Y11	Z11	X12	Y12	Z12	X13	Y13	Z13	X14	Y14	Z14	X15	Y15	Z15	X16	Y16	Z16	X17	Y17	Z17	X18	Y18	Z18	X19	Y19	Z19	X20	Y20	Z20	X21	Y21	Z21
19	0.6666666666666637	0.4954657199590079	-0.03091835098785234	-0.16980731488603396	0.4907492604592083	-0.0325806885222627	-0.14737983968911444	0.4716082451473612	-0.02986625142699728	-0.12298571408298774	0.47168542187622264	-0.02896767395799016	-0.07838664904475273	0.5686431417833885	0.028522053848620277	-0.17076828237997285	0.5539831790413378	0.025329296625339448	-0.1606247231567576	0.5342106493628102	0.019868304062058972	-0.14609081579034236	0.5035146102847388	0.0077259447150811456	-0.11918445244621174	0.5951036700340209	0.03679125956700846	-0.1407769798424548	0.5787897068708747	0.03370957266703922	-0.13354111004248786	0.5529094386778104	0.028252363279770987	-0.12130018957225489	0.5157522461459237	0.015430867175867058	-0.10006106996230166	0.6043791731422171	0.033572775025280666	-0.107345641141454	0.5878373692959399	0.028690427179072997	-0.10209860340384225	0.565020122726335	0.021500341138577905	-0.0951808074606148	0.5280627811511585	0.01043813786984904	-0.0830769487148652	0.6042565542362833	0.006995259695008693	-0.07472448209134486	0.5875178437473871	0.006284146190628337	-0.07121593698648934	0.566874450281807	0.005225257491704549	-0.06753611634567835	0.531301272226783	0.0003664313962709054	-0.06409747372977684	0.4622830810018608	-0.023011742144276925	-0.051989820119430985
20	0.6999999999999968	0.49541682724814606	-0.030922790751282125	-0.16981979871999833	0.49070568548824745	-0.03259025937571136	-0.14739158676039968	0.47157857030883454	-0.029860257002247037	-0.12298829698311034	0.47167889562999177	-0.028966774480000845	-0.07838917564857756	0.568601486592289	0.028546587986426508	-0.17079688486837175	0.5539452197847567	0.025355365410849484	-0.1606475035207447	0.5341754245088153	0.019889878570945263	-0.14611156594003827	0.5034964274751806	0.00774177482532834	-0.11918836385715127	0.5950844416460103	0.03678307563905636	-0.14080253950180466	0.578769831297952	0.033723021202594294	-0.13355895226639997	0.5528913452572852	0.028280867530760756	-0.12130756566507354	0.5157429190548287	0.015436538672348732	-0.10006690729821446	0.6043701318494897	0.033552793598663255	-0.10738374960704725	0.5878282676486194	0.02867988214244621	-0.10212813711183463	0.5650083855935573	0.021508167059404837	-0.0951999725092339	0.528053996261516	0.010446022213800976	-0.08308704988458238	0.604245562906204	0.006897812958599259	-0.07484404225796576	0.5875117180544043	0.006210219474561907	-0.07130770917458681	0.5668722167815585	0.0051855421312262395	-0.0675965041748253	0.5312982245680555	0.00037391110613560485	-0.06410040121981708	0.4622830810018609	-0.023011742144276925	-0.051989820119430985
21	0.7333333333333302	0.49535688542536027	-0.030923656183589388	-0.1698296187861421	0.4906665324492592	-0.0326023706176809	-0.14739788887495706	0.47154551487361185	-0.029854346218725958	-0.12299184354240597	0.4716706902240675	-0.028963989903414422	-0.07839272251111856	0.5685572284792272	0.028566212882468744	-0.17083123993708857	0.5539061966642845	0.02537335714697997	-0.16067481640269926	0.5341388465514667	0.01990966264627103	-0.14613488019512935	0.5034786925435404	0.0077557162060850615	-0.11919285658628861	0.595055543042705	0.036773504327257345	-0.14083537796011397	0.5787408359533066	0.03372846382203776	-0.13358568411080507	0.5528671616467247	0.028291529589993702	-0.12132182362426391	0.5157174535992043	0.01546395316798932	-0.10007328494223594	0.6043595015571059	0.03352932254600527	-0.10742744641873331	0.587816790387977	0.028665175507763707	-0.10216638371571007	0.5649964219366274	0.021510084897270243	-0.09522264977061412	0.5280429136225602	0.010456384031806376	-0.08309933527089827	0.6042357558461616	0.006863255147928293	-0.07492706819859776	0.5875052644323674	0.0061837159354931615	-0.07137335415386628	0.5668678983346302	0.005172254797967679	-0.06764668192314272	0.5312955239397941	0.0003734807065289836	-0.06411661136677421	0.4622830810018608	-0.023011742144276925	-0.051989820119430985
22	0.7666666666666633	0.49528766799359036	-0.03092420299197518	-0.16984330360960037	0.4906162165546992	-0.03259861449911983	-0.1474073082548401	0.47149902448091274	-0.029840326889465696	-0.12299942394102906	0.4716550147195594	-0.028955075298871535	-0.07840029842643181	0.5684969557463695	0.028593259107391744	-0.1708727950232885	0.5538522392933423	0.02540151479142183	-0.16070691836498158	0.5340897114531243	0.019934596831575946	-0.1461616395988346	0.50344492104783	0.007778869903788621	-0.11920294493695151	0.5950126423293635	0.03678391006051829	-0.14088489777745825	0.5786994756287139	0.03374288984616103	-0.1336300519312193	0.5528286965172847	0.02831539239408054	-0.12135590798651599	0.5156921674464511	0.015477319560657898	-0.10009067778567246	0.6043375214819655	0.03352095253236298	-0.1074858838003831	0.587795304065076	0.028660083306948803	-0.10222024107553157	0.5649757758641046	0.02151556266314658	-0.09526287544942277	0.5280251388238458	0.010462964850474155	-0.08312980749814314	0.604225297781295	0.006882890454033674	-0.0749775991713175	0.5874963778768543	0.006195893651710582	-0.07141792584018086	0.5668599792046156	0.005185801259982914	-0.06768552953209714	0.5312903649243906	0.0003731869785030817	-0.06414649933531696	0.4622830810018609	-0.023011742144276925	-0.051989820119430985
23	0.7999999999999965	0.495238536253083	-0.03092357670068735	-0.16985172259684503	0.4905889821740945	-0.03260244455804395	-0.14741151204560254	0.4714729905152901	-0.029845432250471315	-0.12300254348819706	0.4716482124813488	-0.02895078212063673	-0.07840367692852093	0.5684516163227258	0.028628276751614612	-0.17090462440536297	0.5538119003813214	0.02543041089053022	-0.1607334705332842	0.5340568219641008	0.01995736969192574	-0.1461803770556814	0.5034291440393265	0.007791902387524363	-0.11920663344820573	0.5949832554450393	0.03679730359987732	-0.14091804206805697	0.5786719748075903	0.033757762938560476	-0.13365833707855607	0.5528017252200326	0.02834493165979346	-0.1213766029247374	0.515682140054648	0.015488368477675207	-0.10009296833630374	0.6043242259940795	0.03350781595101493	-0.1075295049544667	0.587782144572078	0.02865151248070885	-0.10225922423782857	0.5649633968399937	0.02151883581761327	-0.09528716180557542	0.5280154256829942	0.01047116067043341	-0.08314149857856654	0.6042165897679327	0.006898749331532117	-0.07501351139273196	0.587489629194067	0.0062123792316970405	-0.07144452189339273	0.5668547044755505	0.0051994321137538435	-0.067704757328957	0.5312874255547079	0.0003773729494852551	-0.06415512825209871	0.462283081001861	-0.023011742144276925	-0.051989820119430985
24	0.8333333333333297	0.49520712903631203	-0.03090047589966405	-0.1698576912707319	0.4905677111938438	-0.03260174255027026	-0.1474170697582487	0.4714548195003868	-0.029836838974540814	-0.12300656629496266	0.47164210527311934	-0.028942302514432416	-0.07840774648366194	0.5684103298868872	0.02867964593812422	-0.1709275539186098	0.5537763439179499	0.02547374401780056	-0.16075068566073164	0.5340298131940184	0.01999033558627039	-0.14618989621297654	0.5034172839005373	0.007799509928630988	-0.11921040559434519	0.5949601239655196	0.036806404949338956	-0.14093552198253378	0.5786506485679966	0.03376525876957137	-0.1336724343353357	0.552779021816343	0.02836902705906308	-0.12138629732854532	0.5156630583764911	0.015504875652104344	-0.10010093175709164	0.6043170141368459	0.03347563965549716	-0.10756964493656362	0.587773320050343	0.028631157201346014	-0.10229355019484113	0.5649538913269303	0.021512116916519886	-0.09530978923386055	0.5280043681735784	0.010483669449235622	-0.08315137983125911	0.6042084106710848	0.006870131224461673	-0.0750645033796759	0.5874837958703761	0.006192775616718382	-0.07148282093303521	0.5668501570405775	0.0051954914559899645	-0.06773176882140153	0.5312830194139246	0.000385662804728959	-0.0641641757403108	0.4622830810018608	-0.023011742144276925	-0.051989820119430985
